<?xml version="1.0" encoding="UTF-8" standalone="no"?>
<svg width="26px" height="26px" viewBox="0 0 26 26" version="1.1" xmlns="http://www.w3.org/2000/svg" xmlns:xlink="http://www.w3.org/1999/xlink">
    <!-- Generator: Sketch 3.6.1 (26313) - http://www.bohemiancoding.com/sketch -->
    <title>of-logo</title>
    <desc>Created with Sketch.</desc>
    <defs></defs>
    <g id="Page-1" stroke="none" stroke-width="1" fill="none" fill-rule="evenodd">
        <g id="Landing-Copy-36" transform="translate(-19.000000, -20.000000)" fill="#000000">
            <g id="of-logo" transform="translate(19.000000, 20.000000)">
                <path d="M1.93555554,24.0644441 L1.93555554,1.93555554 L5.63841916,1.93555556 L5.63841916,0.0866666667 L0.0866666667,0.0866666667 L0.0866666667,25.9133333 L5.63853759,25.9133333 L5.63853759,24.0644444 L1.93555554,24.0644441 Z M24.0644445,1.93555526 L24.0644445,24.0644441 L20.4366281,24.0644444 L20.4366281,25.9133333 L25.9133333,25.9133333 L25.9133333,0.0866666667 L20.4207981,0.0866666667 L20.4207981,1.93555556 L24.0644445,1.93555526 Z" id="Shape"></path>
                <path d="M13.0577778,16.7555556 L13.0577778,16.7555556 C15.1000041,16.7555556 16.7555556,15.1000041 16.7555556,13.0577778 C16.7555556,11.0155515 15.1000041,9.36 13.0577778,9.36 C11.0155515,9.36 9.36,11.0155515 9.36,13.0577778 C9.36,15.1000041 11.0155515,16.7555556 13.0577778,16.7555556 L13.0577778,16.7555556 Z M13.0577778,18.6044444 L13.0577778,18.6044444 C9.99443837,18.6044444 7.51111111,16.1211172 7.51111111,13.0577778 C7.51111111,9.99443837 9.99443837,7.51111111 13.0577778,7.51111111 C16.1211172,7.51111111 18.6044444,9.99443837 18.6044444,13.0577778 C18.6044444,16.1211172 16.1211172,18.6044444 13.0577778,18.6044444 L13.0577778,18.6044444 Z" id="Shape"></path>
            </g>
        </g>
    </g>
</svg>