<?xml version="1.0" encoding="UTF-8" standalone="no"?>
<svg width="36px" height="36px" viewBox="0 0 36 36" version="1.1" xmlns="http://www.w3.org/2000/svg" xmlns:xlink="http://www.w3.org/1999/xlink" xmlns:sketch="http://www.bohemiancoding.com/sketch/ns">
    <!-- Generator: Sketch 3.5.1 (25234) - http://www.bohemiancoding.com/sketch -->
    <title>OF_logo</title>
    <desc>Created with Sketch.</desc>
    <defs></defs>
    <g id="Page-1" stroke="none" stroke-width="1" fill="none" fill-rule="evenodd" sketch:type="MSPage">
        <g id="stream" sketch:type="MSArtboardGroup" transform="translate(-17.000000, -15.000000)" fill="#000000">
            <g id="OF_logo" sketch:type="MSLayerGroup" transform="translate(17.000000, 15.000000)">
                <path d="M7.80720589,33.32 L1.4,33.32 L2.68,34.6 L2.68,1.4 L1.4,2.68 L7.80704191,2.68 L7.80704191,0.12 L1.4,0.12 L0.12,0.12 L0.12,1.4 L0.12,34.6 L0.12,35.88 L1.4,35.88 L7.80720589,35.88 L7.80720589,33.32 L7.80720589,33.32 Z M28.2749512,2.68 L34.6,2.68 L33.32,1.4 L33.32,34.6 L34.6,33.32 L28.2968696,33.32 L28.2968696,35.88 L34.6,35.88 L35.88,35.88 L35.88,34.6 L35.88,1.4 L35.88,0.12 L34.6,0.12 L28.2749512,0.12 L28.2749512,2.68 L28.2749512,2.68 Z" id="Shape" sketch:type="MSShapeGroup"></path>
                <path d="M18.08,23.2 L18.08,23.2 C20.9076979,23.2 23.2,20.9076979 23.2,18.08 C23.2,15.2523021 20.9076979,12.96 18.08,12.96 C15.2523021,12.96 12.96,15.2523021 12.96,18.08 C12.96,20.9076979 15.2523021,23.2 18.08,23.2 L18.08,23.2 Z M18.08,25.76 L18.08,25.76 C13.8384531,25.76 10.4,22.3215469 10.4,18.08 C10.4,13.8384531 13.8384531,10.4 18.08,10.4 C22.3215469,10.4 25.76,13.8384531 25.76,18.08 C25.76,22.3215469 22.3215469,25.76 18.08,25.76 L18.08,25.76 Z" id="Shape" sketch:type="MSShapeGroup"></path>
            </g>
        </g>
    </g>
</svg>