<?xml version="1.0" encoding="UTF-8" standalone="no"?>
<svg width="18px" height="18px" viewBox="0 0 18 18" version="1.1" xmlns="http://www.w3.org/2000/svg" xmlns:xlink="http://www.w3.org/1999/xlink">
    <!-- Generator: Sketch 3.6.1 (26313) - http://www.bohemiancoding.com/sketch -->
    <title>settings</title>
    <desc>Created with Sketch.</desc>
    <defs></defs>
    <g id="Page-1" stroke="none" stroke-width="1" fill="none" fill-rule="evenodd">
        <path d="M16.3828571,5.66285714 L14.1085714,5.90285714 C13.9028571,5.53714286 13.6438095,5.18666667 13.3314286,4.85142857 L14.1657143,2.81714286 L11.88,1.4 L10.4628571,3.16 C9.9752381,3.03809524 9.47238095,2.97714286 8.95428571,2.97714286 L8.06285714,1 L5.46857143,1.68571429 L5.77714286,3.86857143 C5.44952381,4.09714286 5.12190476,4.35619048 4.79428571,4.64571429 L2.81714286,3.81142857 L1.43428571,6.08571429 L3.12571429,7.48 C2.98095238,8.01333333 2.90857143,8.48571429 2.90857143,8.89714286 L1,9.69714286 L1.61714286,12.3142857 L3.74285714,12.0742857 C4.07047619,12.5847619 4.36761905,12.9733333 4.63428571,13.24 L3.83428571,15.1828571 L6.12,16.5771429 L7.48,14.8742857 C7.95238095,14.9961905 8.4247619,15.0571429 8.89714286,15.0571429 L9.73142857,17 L12.3142857,16.3828571 L12.0971429,14.1657143 C12.5314286,13.8990476 12.8933333,13.6209524 13.1828571,13.3314286 L15.1828571,14.1657143 L16.5657143,11.88 L14.8171429,10.44 C14.9161905,10.0057143 14.9771429,9.56380952 15,9.11428571 L17,8.28 L16.3828571,5.66285714 Z M11.5501587,6.42759463 C12.2585022,7.15085063 12.612674,8.01577534 12.612674,9.02236874 C12.612674,10.0215059 12.2585022,10.8752462 11.5501587,11.5835897 C10.8492715,12.284477 10.0067155,12.6349206 9.02249084,12.6349206 C8.01589744,12.6349206 7.15842898,12.284477 6.45008547,11.5835897 C5.74919821,10.8752462 5.39875458,10.0215059 5.39875458,9.02236874 C5.39875458,8.01577534 5.74919821,7.15085063 6.45008547,6.42759463 C7.15842898,5.71925112 8.01589744,5.36507937 9.02249084,5.36507937 C10.021628,5.36507937 10.864184,5.71925112 11.5501587,6.42759463 Z" id="settings" stroke="#000000"></path>
    </g>
</svg>