<?xml version="1.0" encoding="UTF-8" standalone="no"?>
<svg width="20px" height="20px" viewBox="0 0 20 20" version="1.1" xmlns="http://www.w3.org/2000/svg" xmlns:xlink="http://www.w3.org/1999/xlink" xmlns:sketch="http://www.bohemiancoding.com/sketch/ns">
    <!-- Generator: Sketch 3.5.2 (25235) - http://www.bohemiancoding.com/sketch -->
    <title>Shape Copy</title>
    <desc>Created with Sketch.</desc>
    <defs></defs>
    <g id="Page-1" stroke="none" stroke-width="1" fill="none" fill-rule="evenodd" sketch:type="MSPage">
        <g id="Landing-Copy-31" sketch:type="MSArtboardGroup" transform="translate(-1025.000000, -23.000000)" stroke="#B2B2B2">
            <path d="M1043.30571,29.2457143 L1040.74714,29.5157143 C1040.51571,29.1042857 1040.22429,28.71 1039.87286,28.3328571 L1040.81143,26.0442857 L1038.24,24.45 L1036.64571,26.43 C1036.09714,26.2928571 1035.53143,26.2242857 1034.94857,26.2242857 L1033.94571,24 L1031.02714,24.7714286 L1031.37429,27.2271429 C1031.00571,27.4842857 1030.63714,27.7757143 1030.26857,28.1014286 L1028.04429,27.1628571 L1026.48857,29.7214286 L1028.39143,31.29 C1028.22857,31.89 1028.14714,32.4214286 1028.14714,32.8842857 L1026,33.7842857 L1026.69429,36.7285714 L1029.08571,36.4585714 C1029.45429,37.0328571 1029.78857,37.47 1030.08857,37.77 L1029.18857,39.9557143 L1031.76,41.5242857 L1033.29,39.6085714 C1033.82143,39.7457143 1034.35286,39.8142857 1034.88429,39.8142857 L1035.82286,42 L1038.72857,41.3057143 L1038.48429,38.8114286 C1038.97286,38.5114286 1039.38,38.1985714 1039.70571,37.8728571 L1041.95571,38.8114286 L1043.51143,36.24 L1041.54429,34.62 C1041.65571,34.1314286 1041.72429,33.6342857 1041.75,33.1285714 L1044,32.19 L1043.30571,29.2457143 Z M1037.86893,30.106044 C1038.66582,30.919707 1039.06426,31.8927473 1039.06426,33.0251648 C1039.06426,34.1491941 1038.66582,35.109652 1037.86893,35.9065385 C1037.08043,36.6950366 1036.13255,37.0892857 1035.0253,37.0892857 C1033.89288,37.0892857 1032.92823,36.6950366 1032.13135,35.9065385 C1031.34285,35.109652 1030.9486,34.1491941 1030.9486,33.0251648 C1030.9486,31.8927473 1031.34285,30.919707 1032.13135,30.106044 C1032.92823,29.3091575 1033.89288,28.9107143 1035.0253,28.9107143 C1036.14933,28.9107143 1037.09721,29.3091575 1037.86893,30.106044 Z" id="Shape-Copy" sketch:type="MSShapeGroup"></path>
        </g>
    </g>
</svg>