<?xml version="1.0" encoding="UTF-8" standalone="no"?>
<svg width="18px" height="18px" viewBox="0 0 18 18" version="1.1" xmlns="http://www.w3.org/2000/svg" xmlns:xlink="http://www.w3.org/1999/xlink" xmlns:sketch="http://www.bohemiancoding.com/sketch/ns">
    <!-- Generator: Sketch 3.3.2 (12043) - http://www.bohemiancoding.com/sketch -->
    <title>cog</title>
    <desc>Created with Sketch.</desc>
    <defs></defs>
    <g id="Page-1" stroke="none" stroke-width="1" fill="none" fill-rule="evenodd" sketch:type="MSPage">
        <g id="noun_110237_cc-(1)" sketch:type="MSLayerGroup" fill="#131313">
            <path d="M9.09748005,17.426991 L8.00460095,17.426991 C7.50246731,17.426991 7.05940822,17.0134692 7.02987095,16.5113355 L6.94125913,15.152621 C6.35051367,15.0049346 5.78930548,14.7686364 5.25763457,14.4437264 L4.22383002,15.3298446 C3.83984547,15.6547546 3.24910002,15.6252174 2.89465274,15.2707701 L2.12668365,14.502801 C1.77223637,14.177891 1.7426991,13.5871455 2.0676091,13.203161 L2.95372729,12.1693564 C2.62881729,11.6376855 2.3925191,11.0764773 2.24483274,10.4857319 L0.886118186,10.3971201 C0.41352182,10.3380455 0,9.92452369 0,9.39285278 L0,8.29997368 C0,7.79784004 0.41352182,7.35478095 0.915655459,7.32524367 L2.27437001,7.23663186 C2.42205638,6.6458864 2.65835456,6.08467821 2.98326456,5.5530073 L2.09714637,4.51920275 C1.7426991,4.1352182 1.77223637,3.54447275 2.12668365,3.19002547 L2.89465274,2.42205638 C3.24910002,2.0676091 3.83984547,2.03807183 4.22383002,2.36298183 L5.25763457,3.24910002 C5.78930548,2.92419002 6.35051367,2.68789183 6.94125913,2.54020547 L7.02987095,1.18149092 C7.05940822,0.679357276 7.50246731,0.265835456 8.00460095,0.265835456 L9.09748005,0.265835456 C9.59961369,0.265835456 10.0426728,0.679357276 10.0722101,1.18149092 L10.1608219,2.54020547 C10.7515673,2.68789183 11.3127755,2.92419002 11.8444464,3.24910002 L12.878251,2.36298183 C13.2622355,2.03807183 13.852981,2.0676091 14.2074283,2.42205638 L14.9753974,3.19002547 C15.3593819,3.54447275 15.3889192,4.1352182 15.0640092,4.51920275 L14.177891,5.5530073 C14.502801,6.08467821 14.7390992,6.6458864 14.8867855,7.23663186 L16.2455001,7.32524367 C16.7476337,7.35478095 17.1611555,7.79784004 17.1611555,8.29997368 L17.1611555,9.39285278 C17.1611555,9.89498642 16.7476337,10.3380455 16.2455001,10.3675828 L14.8867855,10.4561946 C14.7390992,11.0469401 14.502801,11.6081482 14.177891,12.1398192 L15.0640092,13.1736237 C15.3889192,13.5576083 15.3889192,14.1483537 15.0049346,14.502801 L14.2369655,15.2707701 C14.0597419,15.4479937 13.7939064,15.5661428 13.5576083,15.5661428 L13.5576083,15.5661428 C13.3213101,15.5661428 13.0850119,15.477531 12.9077882,15.3298446 L11.8739837,14.4437264 C11.3423128,14.7686364 10.7811046,15.0049346 10.1903591,15.152621 L10.1017473,16.5113355 C10.0426728,17.0134692 9.62915096,17.426991 9.09748005,17.426991 L9.09748005,17.426991 Z M5.19856003,13.7052946 L5.37578366,13.8234437 C5.96652912,14.2074283 6.58681185,14.4732637 7.26616913,14.6209501 L7.47293004,14.6800246 L7.59107913,16.4817983 C7.59107913,16.6885592 7.76830277,16.8362455 7.97506368,16.8362455 L9.06794277,16.8362455 C9.27470368,16.8362455 9.45192732,16.6885592 9.45192732,16.4817983 L9.57007641,14.6800246 L9.77683732,14.6209501 C10.4561946,14.4732637 11.0764773,14.2074283 11.6672228,13.8234437 L11.8444464,13.7052946 L13.203161,14.8867855 C13.2622355,14.9458601 13.3508473,14.9753974 13.4689964,14.9753974 L13.4689964,14.9753974 C13.5871455,14.9753974 13.6757573,14.9458601 13.7348319,14.8572483 L14.502801,14.0892792 C14.6504873,13.9415928 14.6504873,13.7052946 14.5323383,13.5576083 L13.3508473,12.1988937 L13.4689964,12.0216701 C13.852981,11.4309246 14.1188164,10.8106419 14.2665028,10.1312846 L14.3255773,9.92452369 L16.127351,9.8063746 C16.3341119,9.8063746 16.4817983,9.62915096 16.4817983,9.42239005 L16.4817983,8.32951095 C16.4817983,8.12275004 16.3341119,7.94552641 16.127351,7.94552641 L14.3255773,7.82737731 L14.2665028,7.6206164 C14.1188164,6.94125913 13.852981,6.3209764 13.4689964,5.73023094 L13.3508473,5.5530073 L14.5323383,4.19429275 C14.6800246,4.04660638 14.6504873,3.8103082 14.502801,3.66262184 L13.7348319,2.89465274 C13.5871455,2.74696638 13.3508473,2.74696638 13.203161,2.86511547 L11.8444464,4.04660638 L11.6672228,3.92845729 C11.0764773,3.54447275 10.4561946,3.27863729 9.77683732,3.13095093 L9.57007641,3.07187638 L9.45192732,1.27010273 C9.45192732,1.06334182 9.27470368,0.915655459 9.06794277,0.915655459 L7.97506368,0.915655459 C7.76830277,0.915655459 7.59107913,1.06334182 7.59107913,1.27010273 L7.47293004,3.07187638 L7.26616913,3.13095093 C6.58681185,3.27863729 5.96652912,3.54447275 5.37578366,3.92845729 L5.19856003,4.04660638 L3.83984547,2.86511547 C3.69215911,2.74696638 3.45586093,2.74696638 3.30817456,2.89465274 L2.54020547,3.66262184 C2.3925191,3.8103082 2.3925191,4.04660638 2.51066819,4.19429275 L3.69215911,5.5530073 L3.57401002,5.73023094 C3.19002547,6.3209764 2.92419002,6.94125913 2.77650365,7.6206164 L2.71742911,7.82737731 L0.915655459,7.94552641 C0.708894549,7.94552641 0.561208185,8.12275004 0.561208185,8.32951095 L0.561208185,9.42239005 C0.561208185,9.62915096 0.708894549,9.8063746 0.915655459,9.8063746 L2.71742911,9.92452369 L2.77650365,10.1312846 C2.92419002,10.8106419 3.19002547,11.4309246 3.57401002,12.0216701 L3.69215911,12.1988937 L2.51066819,13.5576083 C2.36298183,13.7052946 2.3925191,13.9415928 2.54020547,14.0892792 L3.30817456,14.8572483 C3.45586093,15.0049346 3.69215911,15.0049346 3.83984547,14.8867855 L5.19856003,13.7052946 L5.19856003,13.7052946 Z" id="Shape" sketch:type="MSShapeGroup"></path>
            <path d="M8.56580914,11.5195364 C7.08894549,11.5195364 5.90745458,10.3380455 5.90745458,8.86118186 C5.90745458,7.38431822 7.08894549,6.20282731 8.56580914,6.20282731 C10.0426728,6.20282731 11.2241637,7.38431822 11.2241637,8.86118186 C11.2241637,10.3380455 10.0426728,11.5195364 8.56580914,11.5195364 L8.56580914,11.5195364 Z M8.56580914,6.79357276 C7.41385549,6.79357276 6.49820003,7.70922822 6.49820003,8.86118186 C6.49820003,10.0131355 7.41385549,10.928791 8.56580914,10.928791 C9.71776278,10.928791 10.6334182,10.0131355 10.6334182,8.86118186 C10.6334182,7.70922822 9.71776278,6.79357276 8.56580914,6.79357276 L8.56580914,6.79357276 Z" id="Shape" sketch:type="MSShapeGroup"></path>
        </g>
    </g>
</svg>