<?xml version="1.0" encoding="UTF-8" standalone="no"?>
<svg width="16px" height="14px" viewBox="0 0 16 14" version="1.1" xmlns="http://www.w3.org/2000/svg" xmlns:xlink="http://www.w3.org/1999/xlink" xmlns:sketch="http://www.bohemiancoding.com/sketch/ns">
    <!-- Generator: Sketch 3.3.2 (12043) - http://www.bohemiancoding.com/sketch -->
    <title>hamburger</title>
    <desc>Created with Sketch.</desc>
    <defs></defs>
    <g id="Page-1" stroke="none" stroke-width="1" fill="none" fill-rule="evenodd" sketch:type="MSPage">
        <g id="Line-+-Line-Copy-+-Line-Copy-5" sketch:type="MSLayerGroup" transform="translate(0.000000, 1.000000)" fill="#131313">
            <path d="M1.36842105,1.7 L14.6315789,1.7 L15.1315789,1.7 L15.1315789,0.7 L14.6315789,0.7 L1.36842105,0.7 L0.868421053,0.7 L0.868421053,1.7 L1.36842105,1.7 L1.36842105,1.7 Z" id="Shape" sketch:type="MSShapeGroup"></path>
            <path d="M1.36842105,6.5 L14.6315789,6.5 L15.1315789,6.5 L15.1315789,5.5 L14.6315789,5.5 L1.36842105,5.5 L0.868421053,5.5 L0.868421053,6.5 L1.36842105,6.5 L1.36842105,6.5 Z" id="Shape" sketch:type="MSShapeGroup"></path>
            <path d="M1.36842105,11.3 L14.6315789,11.3 L15.1315789,11.3 L15.1315789,10.3 L14.6315789,10.3 L1.36842105,10.3 L0.868421053,10.3 L0.868421053,11.3 L1.36842105,11.3 L1.36842105,11.3 Z" id="Shape" sketch:type="MSShapeGroup"></path>
        </g>
    </g>
</svg>