<?xml version="1.0" encoding="UTF-8" standalone="no"?>
<svg width="14px" height="14px" viewBox="0 0 14 14" version="1.1" xmlns="http://www.w3.org/2000/svg" xmlns:xlink="http://www.w3.org/1999/xlink" xmlns:sketch="http://www.bohemiancoding.com/sketch/ns">
    <!-- Generator: Sketch 3.3.2 (12043) - http://www.bohemiancoding.com/sketch -->
    <title>up</title>
    <desc>Created with Sketch.</desc>
    <defs></defs>
    <g id="Page-1" stroke="none" stroke-width="1" fill="none" fill-rule="evenodd" sketch:type="MSPage">
        <g id="Line-Copy-2-+-Line-Copy-3-+-Line" sketch:type="MSLayerGroup" fill="#4A4A4A">
            <path d="M6.28806648,2.22562188 L11.6205665,7.63167723 C12.0084067,8.02486725 12.6415568,8.02920411 13.0347469,7.64136387 C13.4279369,7.25352363 13.4322737,6.62037351 13.0444335,6.22718349 L7.71193352,0.821128139 C7.32409328,0.427938115 6.69094315,0.423601257 6.29775313,0.811441496 C5.9045631,1.19928173 5.90022625,1.83243186 6.28806648,2.22562188 L6.28806648,2.22562188 Z" id="Shape" sketch:type="MSShapeGroup"></path>
            <path d="M6.28806648,0.821128139 L0.955566504,6.22718349 C0.567726265,6.62037351 0.572063123,7.25352363 0.965253147,7.64136387 C1.35844317,8.02920411 1.9915933,8.02486725 2.37943353,7.63167723 L7.71193352,2.22562188 C8.09977375,1.83243186 8.0954369,1.19928173 7.70224687,0.811441496 C7.30905685,0.423601257 6.67590672,0.427938115 6.28806648,0.821128139 L6.28806648,0.821128139 Z" id="Shape" sketch:type="MSShapeGroup"></path>
            <path d="M6,2 L6,13 C6,13.5522847 6.44771525,14 7,14 C7.55228475,14 8,13.5522847 8,13 L8,2 C8,1.44771525 7.55228475,1 7,1 C6.44771525,1 6,1.44771525 6,2 L6,2 Z" id="Shape" sketch:type="MSShapeGroup"></path>
        </g>
    </g>
</svg>